<svg width="113" height="113" viewBox="0 0 113 113" fill="none" xmlns="http://www.w3.org/2000/svg">
<path d="M85.9898 28.0081C69.9791 11.9973 44.0201 11.9973 28.0081 28.0081C11.9973 44.0188 11.9973 69.9777 28.0081 85.9898C44.0188 102.001 69.9777 102.001 85.9898 85.9898C102.002 69.9777 102.002 44.0188 85.9898 28.0081ZM40.0049 73.993C30.6188 64.6069 30.6188 49.3897 40.0049 40.0036C49.391 30.6174 64.6082 30.6174 73.9943 40.0036C83.3804 49.3897 83.3804 64.6069 73.9943 73.993C64.6082 83.3791 49.391 83.3791 40.0049 73.993Z" stroke="#F6A63F" stroke-width="2.2" stroke-miterlimit="10" stroke-linecap="round" stroke-linejoin="round"/>
<path d="M78.409 67.9106C77.2927 70.1008 75.8286 72.1614 73.9969 73.9932C72.1638 75.8263 70.1045 77.2891 67.9143 78.4053L77.1618 92.6971C80.3228 90.9103 83.3012 88.6817 85.994 85.989C88.6868 83.2962 90.9153 80.3178 92.7021 77.1568L78.409 67.9106Z" stroke="#F6A63F" stroke-width="2.2" stroke-miterlimit="10" stroke-linecap="round" stroke-linejoin="round"/>
<path d="M67.9131 35.5922C70.1032 36.7084 72.1638 38.1725 73.9956 40.0043C75.8287 41.8374 77.2915 43.8967 78.4077 46.0868L92.6995 36.8394C90.9127 33.6784 88.6841 30.7 85.9914 28.0072C83.2986 25.3144 80.3202 23.0859 77.1592 21.2991L67.9131 35.5922Z" stroke="#F6A63F" stroke-width="2.2" stroke-miterlimit="10" stroke-linecap="round" stroke-linejoin="round"/>
<path d="M35.5947 46.0882C36.7109 43.898 38.175 41.8374 40.0068 40.0056C41.8399 38.1725 43.8992 36.7098 46.0894 35.5935L36.8419 21.2991C33.6809 23.0859 30.7025 25.3144 28.0097 28.0072C25.3169 30.7 23.0884 33.6784 21.3016 36.8394L35.5947 46.0882Z" stroke="#F6A63F" stroke-width="2.2" stroke-miterlimit="10" stroke-linecap="round" stroke-linejoin="round"/>
<path d="M46.0907 78.4065C43.9005 77.2903 41.8399 75.8262 40.0081 73.9944C38.175 72.1613 36.7123 70.1021 35.596 67.9119L21.3016 77.1593C23.0884 80.3203 25.3169 83.2987 28.0097 85.9915C30.7025 88.6843 33.6809 90.9128 36.8419 92.6996L46.0907 78.4065Z" stroke="#F6A63F" stroke-width="2.2" stroke-miterlimit="10" stroke-linecap="round" stroke-linejoin="round"/>
<path d="M96.5876 46.3201V38.8039C96.5876 26.9906 87.0108 17.4138 75.1975 17.4138H67.6813C81.739 21.1977 92.8037 32.2624 96.5876 46.3201Z" stroke="#F6A63F" stroke-width="2.2" stroke-miterlimit="10" stroke-linecap="round" stroke-linejoin="round"/>
<path d="M46.3225 17.4138H38.8062C26.993 17.4138 17.4162 26.9906 17.4162 38.8039V46.3201C21.2001 32.2624 32.2648 21.1977 46.3225 17.4138Z" stroke="#F6A63F" stroke-width="2.2" stroke-miterlimit="10" stroke-linecap="round" stroke-linejoin="round"/>
<path d="M67.6815 96.5853H75.1978C87.011 96.5853 96.5878 87.0086 96.5878 75.194V67.6777C92.8039 81.7368 81.7392 92.8014 67.6815 96.5853Z" stroke="#F6A63F" stroke-width="2.2" stroke-miterlimit="10" stroke-linecap="round" stroke-linejoin="round"/>
<path d="M17.4162 67.679V75.1952C17.4162 87.0084 26.993 96.5866 38.8076 96.5866H46.3238C32.2648 92.8013 21.2001 81.7366 17.4162 67.679Z" stroke="#F6A63F" stroke-width="2.2" stroke-miterlimit="10" stroke-linecap="round" stroke-linejoin="round"/>
</svg>
