<svg width="113" height="113" viewBox="0 0 113 113" fill="none" xmlns="http://www.w3.org/2000/svg">
<path d="M80.6369 77.4972L80.5034 72.4306C81.8388 72.5675 83.0407 73.1152 84.2425 73.9369L85.9785 71.472C84.2425 70.2396 82.5065 69.5549 80.5034 69.4179V68.0486H78.7674V69.4179C75.5624 69.5549 73.0251 71.6089 73.0251 74.8954C73.0251 78.3188 75.2953 79.4143 78.7674 80.3729V85.4395C77.1649 85.1657 75.6959 84.344 74.227 83.1116L72.491 85.4395C74.3605 87.0828 76.4972 88.1783 78.9009 88.3152V90.2323H80.6369V88.3152C83.9754 88.1783 86.5127 86.2611 86.5127 82.8377C86.5127 79.4143 83.9754 78.3188 80.6369 77.4972ZM78.9009 76.9495C77.432 76.4017 76.3636 75.9909 76.3636 74.4846C76.3636 73.1152 77.5655 72.4306 78.9009 72.2936V76.9495ZM80.5034 85.5765V80.7837C82.1059 81.3314 83.1742 81.7422 83.1742 83.2485C83.3077 84.7548 81.9723 85.4395 80.5034 85.5765Z" fill="#F6A63F"/>
<path d="M67.6835 53.9441C67.6835 53.1224 67.1494 52.5747 66.3481 52.5747H53.9289V36.1423C53.9289 35.3207 53.3947 34.7729 52.5935 34.7729C51.7922 34.7729 51.2581 35.3207 51.2581 36.1423V53.9441C51.2581 54.7657 51.7922 55.3134 52.5935 55.3134H66.3481C67.1494 55.3134 67.6835 54.6287 67.6835 53.9441Z" fill="#F6A63F"/>
<path d="M90.2516 61.3386C90.9193 58.4629 91.1863 55.5873 91.1863 52.5747C91.1863 30.8017 73.8261 13 52.5932 13C31.3603 13.1369 14 30.8017 14 52.5747C14 74.3476 31.3603 92.1493 52.5932 92.1493C55.9317 92.1493 59.2702 91.7385 62.3416 90.7799C66.0807 96.3943 72.3571 100.229 79.4348 100.229C90.7857 100.229 100 90.7799 100 79.1403C100 71.7458 95.9938 65.0359 90.2516 61.3386ZM52.5932 89.4106C32.8292 89.4106 16.6708 72.9782 16.6708 52.5747C16.6708 32.308 32.8292 15.7387 52.5932 15.7387C72.3571 15.7387 88.5155 32.308 88.5155 52.5747C88.5155 55.0395 88.2485 57.5044 87.7143 59.9692C86.2453 59.2845 84.6429 58.7368 82.9068 58.4629C83.3075 56.5458 83.441 54.4918 83.441 52.5747C83.441 35.0468 69.5528 20.9423 52.5932 20.9423C35.5 20.9423 21.6118 35.1837 21.6118 52.5747C21.6118 69.9656 35.3665 84.207 52.4596 84.3439C54.7298 84.3439 57 84.0701 59.2702 83.5223C59.6708 85.1656 60.205 86.8088 60.8727 88.3151C58.3354 88.9998 55.3975 89.4106 52.5932 89.4106ZM59.0031 79.2773C59.0031 79.825 59.0031 80.3728 59.1366 80.7836C57.5342 81.1944 55.7981 81.4683 54.0621 81.4683V77.3602C54.0621 76.5385 53.528 75.9908 52.7267 75.9908C51.9255 75.9908 51.3913 76.5385 51.3913 77.3602V81.4683C44.8478 81.1944 38.5714 78.5926 33.764 73.9368L36.5683 71.0611C37.1025 70.5133 37.1025 69.6917 36.5683 69.144C36.0342 68.5962 35.2329 68.5962 34.6988 69.144L31.8944 72.0196C27.2205 67.0899 24.6832 60.7908 24.4162 53.944H28.4224C29.2236 53.944 29.7578 53.3963 29.7578 52.5747C29.7578 51.753 29.2236 51.2053 28.4224 51.2053H24.4162C24.6832 44.4954 27.2205 38.1963 31.7609 33.1297L34.5652 36.0053C35.0994 36.5531 35.9006 36.5531 36.4348 36.0053C36.9689 35.4576 36.9689 34.636 36.4348 34.0882L33.6304 31.2126C38.5714 26.6937 44.7143 24.0919 51.2578 23.681V27.7891C51.2578 28.6108 51.7919 29.1585 52.5932 29.1585C53.3944 29.1585 53.9286 28.6108 53.9286 27.7891V23.681C60.4721 23.9549 66.7485 26.5567 71.5559 31.2126L68.7516 34.0882C68.2174 34.636 68.2174 35.4576 68.7516 36.0053C69.2857 36.5531 70.087 36.5531 70.6211 36.0053L73.4255 33.1297C77.8323 38.1963 80.5031 44.4954 80.7702 51.2053H76.764C75.9627 51.2053 75.4286 51.753 75.4286 52.5747C75.4286 53.3963 75.9627 53.944 76.764 53.944H80.7702C80.7702 55.3134 80.5031 56.8197 80.236 58.1891C79.9689 58.1891 79.7019 58.1891 79.4348 58.1891C68.2174 58.1891 59.0031 67.6377 59.0031 79.2773ZM79.4348 97.4898C69.5528 97.4898 61.5404 89.2736 61.5404 79.1403C61.5404 69.007 69.5528 60.7908 79.4348 60.7908C89.3168 60.7908 97.3292 69.007 97.3292 79.1403C97.3292 89.2736 89.3168 97.4898 79.4348 97.4898Z" fill="#F6A63F"/>
<path fill-rule="evenodd" clip-rule="evenodd" d="M62.3416 90.7799C66.0807 96.3943 72.3571 100.229 79.4347 100.229C90.7857 100.229 99.9999 90.7799 99.9999 79.1403C99.9999 71.7457 95.9937 65.0358 90.2515 61.3385L87.7142 59.9691C86.2453 59.2845 84.6428 58.7367 82.9068 58.4628L80.236 58.189H79.4347C68.2173 58.189 59.0031 67.6376 59.0031 79.2772C59.0031 79.8249 59.003 80.3727 59.1366 80.7835L59.2701 83.5222C59.6708 85.1655 60.2049 86.8087 60.8726 88.315L62.3416 90.7799ZM61.5403 79.1403C61.5403 89.2736 69.5527 97.4898 79.4347 97.4898C89.3167 97.4898 97.3292 89.2736 97.3292 79.1403C97.3292 69.007 89.3167 60.7908 79.4347 60.7908C69.5527 60.7908 61.5403 69.007 61.5403 79.1403Z" fill="#F6A63F"/>
</svg>
