<svg width="113" height="113" viewBox="0 0 113 113" fill="none" xmlns="http://www.w3.org/2000/svg">
<path d="M99.4703 45.2767C100.059 44.1743 100.157 42.9717 99.7646 41.7691C99.3723 40.5664 98.5876 39.6645 97.5087 39.0632L87.6022 33.9521C87.3079 33.7516 87.0137 33.451 87.0137 33.0501L85.2482 21.7255C84.8558 19.5207 83.0903 17.817 80.8344 17.817C80.6382 17.817 80.344 17.817 80.1478 17.9172L69.0643 19.7211C68.672 19.8214 68.3777 19.6209 68.0835 19.4205L60.2368 11.3028C59.354 10.4009 58.2751 10 57.0981 10C55.9211 10 54.7441 10.5011 53.9594 11.3028L46.1127 19.4205C45.9165 19.6209 45.6223 19.7211 45.328 19.7211C45.2299 19.7211 45.2299 19.7211 45.1318 19.7211L34.0484 17.9172C33.8522 17.9172 33.5579 17.817 33.3618 17.817C31.1058 17.817 29.2422 19.4205 28.948 21.7255L27.1825 33.0501C27.0844 33.451 26.8882 33.7516 26.594 33.9521L16.4913 39.1634C15.4124 39.7647 14.6277 40.6667 14.2354 41.8693C13.8431 42.9717 13.9411 44.1743 14.5297 45.2767L19.63 55.3987C19.8262 55.6994 19.8262 56.1002 19.63 56.5011L14.5297 66.7233C13.9411 67.8257 13.8431 69.0283 14.2354 70.2309C14.6277 71.4336 15.4124 72.3355 16.4913 72.9368L26.3978 78.0479C26.6921 78.2484 26.9863 78.549 26.9863 78.9499L28.7518 90.2745C29.1442 92.4793 30.9097 94.183 33.1656 94.183C33.3618 94.183 33.656 94.183 33.8522 94.0828L44.9357 92.2789C45.328 92.1786 45.6223 92.3791 45.9165 92.5795L53.7632 100.697C54.646 101.599 55.7249 102 56.9019 102C58.0789 102 59.2559 101.499 60.0406 100.697L67.8873 92.5795C68.1816 92.2789 68.4758 92.1786 68.8682 92.2789L79.9516 94.0828C80.1478 94.0828 80.4421 94.183 80.6382 94.183C82.8942 94.183 84.7578 92.5795 85.052 90.2745L86.8175 78.9499C86.9156 78.549 87.1118 78.2484 87.406 78.0479L97.4106 72.8366C98.4895 72.2353 99.2742 71.3333 99.6665 70.1307C100.059 68.9281 99.9608 67.7255 99.3723 66.6231L94.2719 56.5011C94.0757 56.2004 94.0757 55.7996 94.2719 55.3987L99.4703 45.2767ZM91.4275 58.1046L96.5278 68.2266C96.6259 68.5272 96.724 68.8279 96.6259 69.1285C96.5278 69.4292 96.3317 69.6296 96.0374 69.8301L86.0328 75.0414C84.7578 75.7429 83.875 76.9455 83.6788 78.4488L81.9133 89.7734C81.8152 90.3747 81.2267 90.8758 80.6382 90.7756L69.5547 88.9717C68.1816 88.7712 66.7103 89.2723 65.6314 90.2745L57.7847 98.3922C57.3923 98.793 56.6077 98.793 56.2153 98.3922L48.3686 90.2745C47.4859 89.3726 46.4069 88.9717 45.2299 88.9717C45.0338 88.9717 44.7395 88.9717 44.5433 89.0719L33.4599 90.8758C32.8714 90.976 32.2828 90.5752 32.1848 89.8736L30.4193 78.549C30.2231 77.146 29.3403 75.8431 28.0652 75.1416L18.0607 69.9303C17.7664 69.8301 17.5703 69.5294 17.4722 69.2288C17.3741 68.9281 17.3741 68.6275 17.5703 68.3268L22.6706 58.2048C23.3572 56.902 23.3572 55.2985 22.6706 53.9956L17.4722 43.7734C17.3741 43.4728 17.276 43.1721 17.3741 42.8715C17.4722 42.5708 17.6683 42.3704 17.9626 42.1699L27.9672 36.9586C29.2422 36.2571 30.125 35.0545 30.3212 33.5512L32.0867 22.2266C32.1848 21.6253 32.7733 21.1242 33.3618 21.2244L44.4453 23.0283C44.6414 23.0283 44.9357 23.1285 45.1318 23.1285C46.3089 23.1285 47.4859 22.6275 48.2705 21.8257L56.1172 13.7081C56.5096 13.3072 57.2943 13.3072 57.6866 13.7081L65.5333 21.8257C66.5141 22.8279 67.9854 23.329 69.4567 23.1285L80.5401 21.3246C81.1286 21.2244 81.7172 21.6253 81.8152 22.3268L83.5807 33.6514C83.7769 35.0545 84.6597 36.3573 85.9348 37.0588L95.9393 42.2702C96.2336 42.3704 96.4297 42.671 96.5278 42.9717C96.6259 43.2723 96.6259 43.573 96.4297 43.8736L91.3294 53.9956C90.7409 55.1983 90.7409 56.8017 91.4275 58.1046ZM71.4183 44.8758H63.0812V38.963C63.0812 35.9564 62.1984 33.7516 60.4329 32.4488C57.7847 30.4444 54.2537 31.4466 53.8613 31.6471C53.1747 31.8475 52.6843 32.549 52.6843 33.2505V40.6667C52.6843 45.9782 46.505 47.8824 46.3088 47.8824C46.1127 47.8824 46.0146 47.9826 45.8184 48.0828C45.2299 47.5817 44.4453 47.281 43.6606 47.281H38.5602C36.5985 47.281 35.0292 48.8845 35.0292 50.8889V69.1285C35.0292 71.1329 36.5985 72.7364 38.5602 72.7364H43.6606C44.5433 72.7364 45.4261 72.3355 46.0146 71.7342C47.0935 72.7364 48.5648 73.3377 50.2322 73.3377H67.8873C72.1049 73.3377 74.8513 70.9325 75.3417 67.024L77.6957 51.5904C77.6957 51.4902 77.6957 51.39 77.6957 51.2898C77.8919 47.7821 74.9494 44.8758 71.4183 44.8758ZM43.8568 69.2288C43.8568 69.329 43.7587 69.4292 43.6606 69.4292H38.5602C38.4621 69.4292 38.3641 69.329 38.3641 69.2288V50.8889C38.3641 50.7887 38.4621 50.6885 38.5602 50.6885H43.6606C43.7587 50.6885 43.8568 50.7887 43.8568 50.8889V69.2288ZM72.1049 66.6231C72.1049 66.6231 72.1049 66.7233 72.1049 66.6231C72.0068 67.5251 71.7126 70.0305 67.9854 70.0305H50.3303C48.6629 70.0305 47.2897 68.6275 47.2897 66.9238V51.1895C47.682 51.0893 56.1172 48.5839 56.1172 40.6667V34.7538C56.9019 34.6536 57.8828 34.7538 58.5693 35.2549C59.4521 35.8562 59.8444 37.159 59.8444 38.963V46.5795C59.8444 47.4815 60.6291 48.2832 61.5119 48.2832H71.5164C73.1839 48.2832 74.557 49.5861 74.557 51.2898L72.1049 66.6231Z" fill="#F6A63F"/>
</svg>
