<svg width="92" height="177" viewBox="0 0 92 177" fill="none" xmlns="http://www.w3.org/2000/svg">
<path d="M22.4318 170.823C21.9774 170.509 21.8634 169.886 22.1773 169.432L27.2923 162.027C27.6061 161.572 28.229 161.458 28.6834 161.772C29.1378 162.086 29.2517 162.709 28.9379 163.163L24.3912 169.746L30.9737 174.292C31.4281 174.606 31.542 175.229 31.2281 175.683C30.9143 176.138 30.2914 176.252 29.837 175.938L22.4318 170.823ZM1.24257 0.0296625C2.55122 0.356828 3.84418 0.693387 5.12156 1.03914L4.59901 2.96967C3.33423 2.62732 2.05376 2.29402 0.757498 1.96995L1.24257 0.0296625ZM12.5995 3.22229C15.1722 4.03023 17.6759 4.87753 20.1115 5.76224L19.4287 7.64207C17.0213 6.76762 14.5455 5.92973 12.0003 5.13041L12.5995 3.22229ZM27.4406 8.62077C29.8985 9.64842 32.2796 10.7167 34.5848 11.8232L33.7194 13.6262C31.4458 12.5349 29.0961 11.4807 26.6691 10.466L27.4406 8.62077ZM41.5871 15.4268C43.9452 16.727 46.2133 18.0702 48.3928 19.4534L47.3211 21.142C45.177 19.7813 42.9444 18.459 40.6215 17.1783L41.5871 15.4268ZM54.9121 23.8987C57.0775 25.4852 59.1404 27.1148 61.1027 28.7834L59.8071 30.307C57.8823 28.6702 55.8573 27.0705 53.7301 25.512L54.9121 23.8987ZM66.9109 34.1218C68.8136 36.0148 70.6002 37.9486 72.2729 39.918L70.7485 41.2127C69.1125 39.2865 67.364 37.3938 65.5003 35.5397L66.9109 34.1218ZM77.118 46.1628C78.6644 48.3531 80.0819 50.5781 81.3735 52.8313L79.6384 53.826C78.3782 51.6277 76.9946 49.4557 75.4841 47.3163L77.118 46.1628ZM84.9698 59.8823C86.0649 62.3201 87.0224 64.7816 87.8459 67.2591L85.948 67.8899C85.1458 65.4766 84.2129 63.0781 83.1455 60.7019L84.9698 59.8823ZM89.9535 74.8919C90.5282 77.4898 90.9622 80.096 91.2598 82.7019L89.2727 82.9288C88.983 80.3915 88.5603 77.8537 88.0007 75.3238L89.9535 74.8919ZM91.7482 90.6053C91.7742 93.2554 91.6623 95.8957 91.417 98.517L89.4257 98.3307C89.6647 95.7773 89.7736 93.2057 89.7483 90.6249L91.7482 90.6053ZM90.2772 106.355C89.7645 108.948 89.1209 111.511 88.3511 114.036L86.438 113.453C87.1884 110.992 87.8156 108.493 88.3152 105.967L90.2772 106.355ZM85.6685 121.485C84.6536 123.918 83.5175 126.303 82.2649 128.632L80.5036 127.685C81.7252 125.413 82.8331 123.087 83.8227 120.715L85.6685 121.485ZM78.1797 135.413C76.7136 137.598 75.1376 139.719 73.4559 141.766L71.9105 140.496C73.5512 138.499 75.0887 136.43 76.5188 134.298L78.1797 135.413ZM68.141 147.634C66.2876 149.492 64.3365 151.271 62.2917 152.96L61.0176 151.419C63.0128 149.77 64.9166 148.035 66.725 146.222L68.141 147.634ZM55.9604 157.703C53.793 159.17 51.5408 160.546 49.2075 161.822L48.248 160.067C50.5257 158.822 52.7239 157.479 54.8391 156.047L55.9604 157.703ZM42.0977 165.286C39.7016 166.318 37.2341 167.25 34.6985 168.076L34.0795 166.174C36.5567 165.368 38.9668 164.457 41.3065 163.449L42.0977 165.286ZM27.0789 170.182C25.7942 170.476 24.4944 170.743 23.18 170.984L22.8202 169.016C24.1057 168.781 25.3766 168.52 26.6327 168.232L27.0789 170.182Z" fill="#B6B6B6"/>
</svg>
