<svg width="136" height="174" viewBox="0 0 136 174" fill="none" xmlns="http://www.w3.org/2000/svg">
<path d="M1.05741 165.167C0.412947 164.646 0.312481 163.702 0.833015 163.057L9.31561 152.555C9.83614 151.911 10.7806 151.81 11.425 152.331C12.0695 152.851 12.17 153.796 11.6494 154.44L4.10934 163.776L13.4446 171.316C14.0891 171.836 14.1895 172.781 13.669 173.425C13.1485 174.07 12.2041 174.17 11.5596 173.649L1.05741 165.167ZM1.84125 162.508C3.76629 162.304 5.66736 162.065 7.54464 161.793L7.97407 164.763C6.05926 165.04 4.12082 165.283 2.1586 165.492L1.84125 162.508ZM18.7589 159.724C22.5475 158.869 26.2304 157.874 29.8092 156.747L30.71 159.609C27.0517 160.76 23.2886 161.777 19.4195 162.651L18.7589 159.724ZM40.5326 152.86C44.0992 151.391 47.5515 149.784 50.8911 148.051L52.273 150.714C48.8558 152.487 45.3239 154.131 41.6755 155.634L40.5326 152.86ZM60.7752 142.356C64.0132 140.295 67.1318 138.109 70.1332 135.809L71.9577 138.191C68.8885 140.542 65.6986 142.778 62.3859 144.887L60.7752 142.356ZM78.8897 128.489C81.7194 125.913 84.4287 123.231 87.0196 120.455L89.2128 122.502C86.5677 125.336 83.8006 128.075 80.909 130.707L78.8897 128.489ZM94.4853 111.8C96.8688 108.812 99.133 105.741 101.28 102.599L103.757 104.292C101.569 107.493 99.2614 110.623 96.8307 113.671L94.4853 111.8ZM107.402 92.9293C109.336 89.6271 111.152 86.2674 112.853 82.8636L115.536 84.2047C113.807 87.6661 111.959 91.0843 109.991 94.4453L107.402 92.9293ZM117.645 72.4565C119.14 68.9206 120.519 65.3539 121.782 61.7707L124.612 62.7684C123.328 66.408 121.928 70.0317 120.408 73.625L117.645 72.4565ZM125.268 50.8596C126.333 47.1519 127.278 43.4426 128.107 39.7476L131.034 40.4043C130.193 44.1562 129.233 47.9226 128.152 51.6875L125.268 50.8596ZM130.284 28.4927C130.907 24.6672 131.404 20.8756 131.78 17.1362L134.765 17.4358C134.383 21.2366 133.878 25.0889 133.246 28.9746L130.284 28.4927ZM132.556 5.71837C132.623 3.79083 132.656 1.88374 132.656 -0.000126659L135.656 -0.000137746C135.656 1.91914 135.622 3.86111 135.554 5.82296L132.556 5.71837Z" fill="#D7D7D7"/>
</svg>
