<svg width="148" height="89" viewBox="0 0 148 89" fill="none" xmlns="http://www.w3.org/2000/svg">
<path d="M147.061 78.0607C147.646 77.4749 147.646 76.5251 147.061 75.9393L137.515 66.3934C136.929 65.8076 135.979 65.8076 135.393 66.3934C134.808 66.9792 134.808 67.9289 135.393 68.5147L143.879 77L135.393 85.4853C134.808 86.0711 134.808 87.0208 135.393 87.6066C135.979 88.1924 136.929 88.1924 137.515 87.6066L147.061 78.0607ZM0.697635 1.74421C1.71261 3.52042 2.77005 5.28244 3.86993 7.02835L6.40823 5.42927C5.33134 3.71986 4.29605 1.99474 3.30236 0.255792L0.697635 1.74421ZM10.8852 17.1717C13.3426 20.4184 15.9595 23.5901 18.7359 26.6731L20.9651 24.6655C18.2461 21.6463 15.6835 18.5403 13.2773 15.3612L10.8852 17.1717ZM27.3685 35.4776C30.3345 38.2571 33.4474 40.9419 36.7071 43.5197L38.5679 41.1665C35.3743 38.641 32.325 36.011 29.4199 33.2886L27.3685 35.4776ZM46.6868 50.7603C50.0628 53.0035 53.5717 55.1386 57.2134 57.155L58.6666 54.5305C55.0957 52.5532 51.6559 50.4601 48.347 48.2615L46.6868 50.7603ZM68.219 62.6931C71.9013 64.3693 75.7016 65.9303 79.6198 67.3671L80.6527 64.5505C76.8052 63.1396 73.075 61.6074 69.4619 59.9627L68.219 62.6931ZM91.3204 71.18C95.1964 72.2909 99.1753 73.2858 103.257 74.1573L103.883 71.2235C99.8683 70.3661 95.9563 69.3879 92.147 68.2961L91.3204 71.18ZM115.362 76.3299C119.345 76.9132 123.417 77.3837 127.577 77.7356L127.83 74.7462C123.729 74.3995 119.719 73.9359 115.797 73.3616L115.362 76.3299ZM139.852 78.4169C141.882 78.4721 143.931 78.5 146 78.5V75.5C143.958 75.5 141.936 75.4725 139.934 75.418L139.852 78.4169Z" fill="#D7D7D7"/>
</svg>
