<svg width="182" height="86" viewBox="0 0 182 86" fill="none" xmlns="http://www.w3.org/2000/svg">
<path d="M178.323 85.4896C179.146 85.5872 179.892 84.9994 179.99 84.1767L181.58 70.7708C181.678 69.9481 181.09 69.2021 180.267 69.1045C179.445 69.0069 178.699 69.5946 178.601 70.4173L177.187 82.3337L165.271 80.9199C164.448 80.8223 163.702 81.4101 163.604 82.2327C163.507 83.0554 164.095 83.8014 164.917 83.899L178.323 85.4896ZM0.305991 3.4874C2.45048 3.76712 4.56293 4.04242 6.64501 4.31428L7.03343 1.33953C4.9511 1.06764 2.83804 0.792256 0.694009 0.512599L0.305991 3.4874ZM19.2549 5.97452C23.5822 6.55169 27.7686 7.12078 31.8252 7.6914L32.2431 4.72064C28.1773 4.14873 23.9834 3.57863 19.6515 3.00085L19.2549 5.97452ZM44.4118 9.53977C48.7362 10.207 52.9049 10.8892 56.9337 11.6007L57.4554 8.64646C53.4013 7.93047 49.2109 7.24468 44.8692 6.57485L44.4118 9.53977ZM69.3735 13.9958C73.6293 14.8928 77.7248 15.8467 81.6835 16.8778L82.4397 13.9747C78.4295 12.9301 74.2876 11.9657 69.9922 11.0603L69.3735 13.9958ZM93.7863 20.425C97.8493 21.7633 101.776 23.2211 105.598 24.8257L106.759 22.0597C102.859 20.4221 98.8574 18.9368 94.7248 17.5756L93.7863 20.425ZM116.966 30.2072C120.636 32.1551 124.233 34.2818 127.788 36.6156L129.434 34.1077C125.801 31.7229 122.124 29.5489 118.372 27.5574L116.966 30.2072ZM137.986 43.9739C141.185 46.4939 144.374 49.2108 147.578 52.1466L149.605 49.9348C146.349 46.9517 143.103 44.1863 139.843 41.6176L137.986 43.9739ZM156.613 60.9637C159.433 63.8813 162.281 66.9791 165.171 70.2716L167.425 68.2925C164.506 64.967 161.626 61.8336 158.77 58.8787L156.613 60.9637ZM173.346 79.961C174.66 81.576 175.985 83.2314 177.322 84.9283L179.678 83.0717C178.332 81.3631 176.998 79.6956 175.674 78.0679L173.346 79.961Z" fill="#D7D7D7"/>
</svg>
