<svg width="172" height="211" viewBox="0 0 172 211" fill="none" xmlns="http://www.w3.org/2000/svg">
<path d="M1.2851 204.319C0.556817 203.924 0.286513 203.014 0.681355 202.285L7.11568 190.417C7.51052 189.689 8.42099 189.419 9.14927 189.814C9.87755 190.208 10.1479 191.119 9.75301 191.847L4.03361 202.397L14.5829 208.116C15.3112 208.511 15.5815 209.421 15.1867 210.15C14.7918 210.878 13.8814 211.148 13.1531 210.753L1.2851 204.319ZM1.57311 201.562C3.43762 201.009 5.28375 200.439 7.11166 199.854L8.02678 202.711C6.17839 203.303 4.31182 203.879 2.42693 204.438L1.57311 201.562ZM18.0078 196.099C21.6542 194.751 25.2231 193.337 28.716 191.86L29.8845 194.623C26.3489 196.118 22.7371 197.549 19.048 198.913L18.0078 196.099ZM39.2155 187.122C42.7199 185.437 46.1421 183.685 49.4836 181.869L50.9161 184.505C47.5307 186.345 44.0642 188.12 40.5151 189.825L39.2155 187.122ZM59.4632 176.112C62.7677 174.09 65.9867 172.002 69.1219 169.851L70.8192 172.325C67.6408 174.506 64.3779 176.622 61.0287 178.671L59.4632 176.112ZM78.4389 163.088C81.5089 160.732 84.4911 158.311 87.3873 155.83L89.3391 158.108C86.4023 160.624 83.3783 163.079 80.2654 165.468L78.4389 163.088ZM95.9244 148.107C98.7155 145.442 101.418 142.717 104.035 139.936L106.22 141.991C103.567 144.812 100.826 147.575 97.9961 150.277L95.9244 148.107ZM111.702 131.338C114.189 128.396 116.589 125.4 118.904 122.353L121.292 124.168C118.947 127.255 116.514 130.293 113.993 133.275L111.702 131.338ZM125.636 113.004C127.805 109.824 129.889 106.597 131.891 103.327L134.45 104.893C132.423 108.205 130.312 111.474 128.114 114.695L125.636 113.004ZM137.668 93.3566C139.516 89.9828 141.284 86.5693 142.971 83.1202L145.666 84.4387C143.958 87.9286 142.17 91.3832 140.299 94.7983L137.668 93.3566ZM147.805 72.653C149.34 69.1261 150.798 65.5676 152.18 61.9818L154.979 63.0605C153.582 66.6853 152.109 70.2834 150.556 73.8504L147.805 72.653ZM156.104 51.1343C157.34 47.4898 158.501 43.8223 159.591 40.136L162.468 40.9865C161.367 44.7097 160.194 48.4148 158.946 52.0973L156.104 51.1343ZM162.651 29.0077C163.603 25.2759 164.484 21.5296 165.298 17.7732L168.23 18.4083C167.409 22.1995 166.519 25.9812 165.558 29.7489L162.651 29.0077ZM167.544 6.44769C167.885 4.55284 168.211 2.65657 168.519 0.759394L171.48 1.24142C171.169 3.15522 170.841 5.06825 170.496 6.97999L167.544 6.44769Z" fill="#D7D7D7"/>
</svg>
