<svg width="99" height="101" viewBox="0 0 99 101" fill="none" xmlns="http://www.w3.org/2000/svg">
<path d="M1.61971 93.8399C0.897485 93.4341 0.640977 92.5197 1.04678 91.7974L7.6598 80.0281C8.06561 79.3059 8.98006 79.0493 9.70229 79.4552C10.4245 79.861 10.681 80.7754 10.2752 81.4976L4.39698 91.9593L14.8586 97.8375C15.5809 98.2433 15.8374 99.1578 15.4316 99.88C15.0258 100.602 14.1113 100.859 13.3891 100.453L1.61971 93.8399ZM1.94937 91.088C3.89392 90.5425 5.79553 89.9976 7.65531 89.4526L8.49908 92.3314C6.62748 92.88 4.71467 93.4281 2.75961 93.9765L1.94937 91.088ZM18.971 85.9624C22.8987 84.6831 26.6109 83.3941 30.122 82.086L31.1694 84.8972C27.6145 86.2217 23.8624 87.5243 19.9002 88.8149L18.971 85.9624ZM41.0576 77.6596C44.8463 75.9852 48.3518 74.2669 51.601 72.4872L53.0422 75.1183C49.7095 76.9438 46.1268 78.6992 42.2703 80.4036L41.0576 77.6596ZM61.5243 66.2995C64.8176 63.9465 67.7773 61.4739 70.4513 58.8502L72.5525 60.9915C69.76 63.7314 66.6796 66.3032 63.2683 68.7405L61.5243 66.2995ZM77.9926 50.0379C80.2095 46.9344 82.1773 43.6208 83.9453 40.0573L86.6327 41.3907C84.7993 45.0859 82.7506 48.5383 80.4338 51.7816L77.9926 50.0379ZM88.4546 29.2782C89.6973 25.7533 90.8248 22.0131 91.8688 18.0315L94.7707 18.7924C93.7094 22.8399 92.5585 26.6604 91.2839 30.2756L88.4546 29.2782ZM94.5369 6.53787C94.9278 4.64741 95.3088 2.7097 95.6823 0.722746L98.6306 1.27701C98.2541 3.27984 97.8697 5.2354 97.4747 7.1454L94.5369 6.53787Z" fill="#D7D7D7"/>
</svg>
