<svg width="16" height="16" viewBox="0 0 16 16" fill="none" xmlns="http://www.w3.org/2000/svg">
<path fill-rule="evenodd" clip-rule="evenodd" d="M15.0079 11.954V14.3323C15.0097 14.7788 14.8321 15.2053 14.519 15.5071C14.2059 15.8089 13.7861 15.958 13.3629 15.9179C11.0408 15.6528 8.81026 14.8192 6.85051 13.4841C5.02723 12.2669 3.4814 10.643 2.32281 8.72751C1.04749 6.65936 0.253828 4.30469 0.00613036 1.85427C-0.0319981 1.41102 0.108964 0.971338 0.394582 0.642634C0.6802 0.313931 1.08417 0.126474 1.50782 0.126055H3.77167C4.52921 0.118222 5.17488 0.701573 5.28091 1.4896C5.37646 2.25071 5.55366 2.99801 5.80914 3.71726C6.01646 4.29667 5.88386 4.94985 5.46956 5.38999L4.5112 6.39679C5.58544 8.38151 7.14969 10.0248 9.03891 11.1534L9.99727 10.1466C10.4162 9.71132 11.038 9.57201 11.5895 9.78981C12.2742 10.0582 12.9855 10.2444 13.71 10.3447C14.4688 10.4572 15.0269 11.1492 15.0079 11.954Z" fill="#3976BB"/>
</svg>
