<svg id="Слой_1" data-name="Слой 1" xmlns="http://www.w3.org/2000/svg" viewBox="0 0 104.78 49.96"><path d="M289.81,135.66h5.94v5.61H276.37v-5.61h6.22v-12a22.61,22.61,0,0,1-5.54,1.84v-5.66q5.37-1.17,7.29-4.18h5.47Z" transform="translate(-226.24 -101.52)" style="fill:#497fcb"/><path d="M318.91,135v6.31H299v-5.92l4.37-3.07q1-.66,3.6-2.83a19.71,19.71,0,0,0,3.43-3.35,4.26,4.26,0,0,0,.8-2.45,2.72,2.72,0,0,0-.7-2,2.37,2.37,0,0,0-1.83-.75q-2.83,0-3.18,4.45L299,124.12a10.15,10.15,0,0,1,3.55-6.76,10.58,10.58,0,0,1,6.69-2.21,10.22,10.22,0,0,1,6.83,2.24,7.43,7.43,0,0,1,2.65,6,8.6,8.6,0,0,1-1.44,4.73q-1.44,2.25-8.43,6.86Z" transform="translate(-226.24 -101.52)" style="fill:#497fcb"/><path d="M263.77,136h-6.93l-3.7,8.7h-6.42L260,115.37h8.13l4,25.9H264.5Zm-.46-5.35-1-7.49-3.41,7.49Z" transform="translate(-226.24 -101.52)" style="fill:#497fcb"/><polygon points="17.6 39.75 20.08 34.32 14.87 23.77 21.23 14.55 14.28 14.55 7.33 24.97 7.33 14.55 0.04 14.55 0.04 39.75 7.33 39.75 7.33 33.94 9.94 30.23 14.3 39.75 17.6 39.75" style="fill:#497fcb"/><path d="M228.91,146.89l1.41,4.52h-1.14l-.27-.93h-1.46l-.28.93h-.93l1.45-4.52Zm-1.21,2.76h1l-.48-1.59Z" transform="translate(-226.24 -101.52)" style="fill:#497fcb"/><path d="M232,146.89h2.1a2,2,0,0,1,.85.14,1.29,1.29,0,0,1,.47.4,1.07,1.07,0,0,1,.18.63,1,1,0,0,1-.81,1,1.13,1.13,0,0,1,.7.42,1.11,1.11,0,0,1,.24.69,1.17,1.17,0,0,1-.38.87,1.75,1.75,0,0,1-1.25.37H232Zm1.06.8v1h.79c.3,0,.48-.06.56-.17a.68.68,0,0,0,.11-.34.48.48,0,0,0-.09-.29.42.42,0,0,0-.21-.16,2,2,0,0,0-.44,0Zm0,1.8v1.09h.81a.88.88,0,0,0,.58-.15.49.49,0,0,0,.17-.41.52.52,0,0,0-.16-.38.8.8,0,0,0-.55-.15Z" transform="translate(-226.24 -101.52)" style="fill:#497fcb"/><path d="M240.4,146.89v.9h-1.11v3.62h-1.07v-3.62H237.1v-.9Z" transform="translate(-226.24 -101.52)" style="fill:#497fcb"/><path d="M243.7,151.48a1.65,1.65,0,0,1-1.41-.68,2.77,2.77,0,0,1-.5-1.66,2.62,2.62,0,0,1,.51-1.65,1.66,1.66,0,0,1,1.43-.67,1.62,1.62,0,0,1,1.43.71,2.81,2.81,0,0,1,.48,1.62,2.75,2.75,0,0,1-.5,1.66A1.67,1.67,0,0,1,243.7,151.48Zm0-3.79c-.56,0-.83.48-.83,1.46s.27,1.47.83,1.47.8-.49.8-1.47S244.26,147.69,243.73,147.69Z" transform="translate(-226.24 -101.52)" style="fill:#497fcb"/><path d="M249.47,151.41l-1.11-3.68v3.68h-.89v-4.52h1.65l.79,2.71.83-2.71h1.65v4.52h-1.06v-3.68l-1.14,3.68Z" transform="translate(-226.24 -101.52)" style="fill:#497fcb"/><path d="M256.63,146.89l1.41,4.52H256.9l-.28-.93h-1.45l-.29.93H254l1.44-4.52Zm-1.21,2.76h1l-.47-1.59Z" transform="translate(-226.24 -101.52)" style="fill:#497fcb"/><path d="M262.25,146.89v.9h-1.12v3.62h-1.07v-3.62h-1.12v-.9Z" transform="translate(-226.24 -101.52)" style="fill:#497fcb"/><path d="M264.88,151v.44h-1v-4.52h1v1.93c0,.33,0,.66,0,1a5.46,5.46,0,0,1,.51-.93l1.06-1.53v-.47h1v4.52h-1v-2q0-.51,0-.84a5.88,5.88,0,0,1-.51.93Z" transform="translate(-226.24 -101.52)" style="fill:#497fcb"/><path d="M269.14,150l.94-.13a.77.77,0,0,0,.85.71c.51,0,.77-.2.77-.6s-.22-.58-.65-.58h-.36v-.7H271a.59.59,0,0,0,.43-.15.51.51,0,0,0,.15-.39.44.44,0,0,0-.19-.38.84.84,0,0,0-.5-.13.92.92,0,0,0-.54.13.69.69,0,0,0-.25.48l-.87-.14a1.49,1.49,0,0,1,1.7-1.34,2,2,0,0,1,1.26.34,1,1,0,0,1,.46.87,1,1,0,0,1-.77,1,1.05,1.05,0,0,1,.9,1.05,1.28,1.28,0,0,1-.48,1,2,2,0,0,1-1.31.4,2,2,0,0,1-1.38-.4A1.39,1.39,0,0,1,269.14,150Z" transform="translate(-226.24 -101.52)" style="fill:#497fcb"/><path d="M275.65,151v.44h-1v-4.52h1v1.93c0,.33,0,.66,0,1a5.46,5.46,0,0,1,.51-.93l1.06-1.53v-.47h1v4.52h-1v-2q0-.51,0-.84a5.88,5.88,0,0,1-.51.93Z" transform="translate(-226.24 -101.52)" style="fill:#497fcb"/><path d="M281.35,149.73v1.68h-1.07v-4.52h1.77a2.4,2.4,0,0,1,.91.13,1.27,1.27,0,0,1,.56.46,1.23,1.23,0,0,1,.25.8,1.64,1.64,0,0,1-.13.65,1.31,1.31,0,0,1-.84.74,3,3,0,0,1-.71.06Zm0-.82H282a.71.71,0,0,0,.55-.18.65.65,0,0,0,.16-.42.54.54,0,0,0-.18-.43.78.78,0,0,0-.54-.17h-.68Z" transform="translate(-226.24 -101.52)" style="fill:#497fcb"/><path d="M286.57,150.05l-1.65-3.16h1.13l1,2,.81-2h.94l-1.38,3.35a2.33,2.33,0,0,1-.57.9,1.32,1.32,0,0,1-.89.27h-.45v-.86h.36a.87.87,0,0,0,.42-.09A.73.73,0,0,0,286.57,150.05Z" transform="translate(-226.24 -101.52)" style="fill:#497fcb"/><path d="M293.46,147.75h-2.15v.93H293v.85h-1.69v1h2.15v.89h-3.22v-4.52h3.22Z" transform="translate(-226.24 -101.52)" style="fill:#497fcb"/><path d="M297.24,151.41l-1.11-3.68v3.68h-.89v-4.52h1.65l.79,2.71.83-2.71h1.65v4.52h-1.07v-3.68L298,151.41Z" transform="translate(-226.24 -101.52)" style="fill:#497fcb"/><path d="M305,146.89h2.1a2.08,2.08,0,0,1,.85.14,1.19,1.19,0,0,1,.46.4,1.05,1.05,0,0,1-.62,1.63,1.16,1.16,0,0,1,.7.42,1.1,1.1,0,0,1,.23.69,1.13,1.13,0,0,1-.38.87,1.72,1.72,0,0,1-1.24.37H305Zm1.05.8v1h.8c.29,0,.48-.06.55-.17a.61.61,0,0,0,.12-.34.43.43,0,0,0-.1-.29.37.37,0,0,0-.2-.16,2.2,2.2,0,0,0-.45,0Zm0,1.8v1.09h.81a.91.91,0,0,0,.59-.15.52.52,0,0,0,.17-.41.53.53,0,0,0-.17-.38.79.79,0,0,0-.54-.15Z" transform="translate(-226.24 -101.52)" style="fill:#497fcb"/><path d="M314.2,148.57l-1.1.07c0-.63-.27-.95-.75-.95s-.82.49-.82,1.47a2.12,2.12,0,0,0,.22,1.16.74.74,0,0,0,.63.3c.44,0,.7-.29.8-.86l1,.07a1.77,1.77,0,0,1-.6,1.23,2,2,0,0,1-2.69-.2,2.46,2.46,0,0,1-.55-1.71,2.52,2.52,0,0,1,.54-1.67,1.8,1.8,0,0,1,1.48-.66A1.7,1.7,0,0,1,314.2,148.57Z" transform="translate(-226.24 -101.52)" style="fill:#497fcb"/><path d="M319.18,147.75H317v.93h1.69v.85H317v1h2.15v.89H316v-4.52h3.22Z" transform="translate(-226.24 -101.52)" style="fill:#497fcb"/><path d="M319.17,101.52v12H331v-12Zm5.24,7-3.63,1.72v-1.17L323.1,108l-.41-.2-1.11-.54-.45-.22-.25-.11-.1,0v-1.18l3.63,1.72Zm4.8,3h-4.4v-1l4.4,0Z" transform="translate(-226.24 -101.52)" style="fill:#fca73c"/></svg>